<svg width="30" height="30" viewBox="0 0 30 30" fill="none" xmlns="http://www.w3.org/2000/svg">
<circle cx="15" cy="15" r="15" fill="#7B914E"/>
<path d="M21.9814 9.18403C21.9757 9.1067 21.9123 9.04688 21.8364 9.04688H19.2182V8.30469C19.2182 5.93102 17.3258 4 15 4C12.6742 4 10.7818 5.93102 10.7818 8.30469V9.04688H8.16362C8.08769 9.04688 8.02427 9.1067 8.0186 9.18403L7.00042 22.8403C6.99736 22.8814 7.01118 22.9221 7.03882 22.9524C7.06631 22.9828 7.105 23 7.14544 23H22.8546C22.895 23 22.9337 22.9828 22.9612 22.9525C22.9887 22.9222 23.0026 22.8815 22.9996 22.8404L21.9814 9.18403ZM11.9454 8.30469C11.9454 6.58593 13.3156 5.1875 15 5.1875C16.6844 5.1875 18.0546 6.58593 18.0546 8.30469V9.04688H11.9454V8.30469ZM11.3636 13.2031C10.5614 13.2031 9.90908 12.5372 9.90908 11.7188C9.90908 11.1263 10.2 10.5926 10.7818 10.3583V11.7188C10.7818 12.0462 11.0429 12.3125 11.3636 12.3125C11.6844 12.3125 11.9454 12.0462 11.9454 11.7188V10.3592C12.5273 10.5934 12.8182 11.1312 12.8182 11.7188C12.8182 12.5372 12.1658 13.2031 11.3636 13.2031ZM18.6364 13.2031C17.8342 13.2031 17.1818 12.5372 17.1818 11.7188C17.1818 11.1263 17.4727 10.5926 18.0546 10.3583V11.7188C18.0546 12.0462 18.3156 12.3125 18.6364 12.3125C18.9571 12.3125 19.2182 12.0462 19.2182 11.7188V10.3592C19.8 10.5934 20.0909 11.1312 20.0909 11.7188C20.0909 12.5372 19.4386 13.2031 18.6364 13.2031Z" fill="white"/>
</svg>
