<svg width="15" height="11" viewBox="0 0 15 11" fill="none" xmlns="http://www.w3.org/2000/svg">
<path fill-rule="evenodd" clip-rule="evenodd" d="M6.69434 0.508783C6.62988 0.514589 6.41235 0.533088 6.21094 0.549899C4.78699 0.668688 3.51645 1.05464 2.99268 1.5275C2.6659 1.8225 2.3427 2.33446 2.00511 3.09182L1.85104 3.43745L1.05003 3.45128C0.340635 3.46353 0.240088 3.47083 0.170977 3.51513C0.0871289 3.56885 0 3.71609 0 3.80405C0 3.92021 0.239678 4.93411 0.281309 4.99409C0.370459 5.1225 0.492363 5.16541 0.768281 5.16552L1.02384 5.16563L0.869268 5.37993C0.696943 5.6188 0.552979 5.92277 0.477422 6.20727C0.401309 6.49401 0.409951 7.12672 0.494004 7.41918C0.608174 7.81644 0.862471 8.24481 1.12509 8.48225L1.23047 8.57753L1.23111 9.3256C1.23182 10.1584 1.244 10.2215 1.43271 10.3713C1.59047 10.4966 1.68158 10.5069 2.55117 10.4973L3.35918 10.4884L3.46465 10.4124C3.68068 10.2569 3.70441 10.1985 3.7207 9.78333L3.73535 9.41005H7.5H11.2646L11.2793 9.78333C11.2956 10.1985 11.3193 10.2569 11.5354 10.4124L11.6408 10.4884L12.4488 10.4973C13.3184 10.5069 13.4095 10.4966 13.5673 10.3713C13.7553 10.222 13.7682 10.1563 13.7689 9.34479L13.7695 8.61591L13.9113 8.46947C14.1994 8.172 14.3886 7.84166 14.5063 7.43046C14.5989 7.10714 14.5994 6.49946 14.5074 6.18086C14.4263 5.89993 14.2516 5.55446 14.0815 5.33845L13.9454 5.16563L14.2164 5.16552C14.509 5.16541 14.628 5.12471 14.719 4.99362C14.7614 4.93251 15 3.92452 15 3.8064C15 3.71631 14.9138 3.56943 14.829 3.51513C14.7599 3.47083 14.6593 3.46353 13.9496 3.45128L13.1483 3.43745L12.9963 3.09182C12.6608 2.32885 12.3873 1.89506 12.0279 1.55576C11.8247 1.36397 11.7453 1.31138 11.4551 1.17647C10.8 0.871894 10.0153 0.679969 8.93555 0.560213C8.56406 0.519013 6.98329 0.482735 6.69434 0.508783ZM8.84854 1.63838C9.82151 1.75075 10.5062 1.92141 11.001 2.1748C11.2711 2.31314 11.4345 2.50543 11.6749 2.96739C11.8467 3.29757 12.1289 3.94294 12.1289 4.00551C12.1289 4.02222 10.4229 4.03195 7.5 4.03195C4.21436 4.03195 2.87109 4.02332 2.87109 4.0022C2.87109 3.9858 2.92898 3.83339 2.99977 3.66347C3.28175 2.98644 3.56854 2.4838 3.76646 2.31978C4.19314 1.96621 5.32811 1.68784 6.75293 1.58733C7.08683 1.56377 8.50096 1.59823 8.84854 1.63838ZM3.44432 5.85931C4.33875 6.01396 4.6851 7.05079 4.04437 7.65554C3.60542 8.06981 2.89849 8.06981 2.45953 7.65554C1.83161 7.06287 2.13979 6.05041 3.00293 5.87032C3.22685 5.82361 3.23646 5.82337 3.44432 5.85931ZM12.1761 5.9163C12.7721 6.12448 13.0582 6.80185 12.7827 7.35218C12.5001 7.9167 11.8033 8.12729 11.2053 7.82888C11.0622 7.75746 10.8368 7.53529 10.7587 7.38854C10.5433 6.98434 10.6295 6.47455 10.9671 6.15598C11.2842 5.85669 11.7443 5.76547 12.1761 5.9163Z" fill="#ABAEB3"/>
</svg>
