<svg xmlns="http://www.w3.org/2000/svg" width="70" height="70" viewBox="0 0 70 70" fill="none">
  <g clip-path="url(#clip0_11408_20922)">
    <path fill-rule="evenodd" clip-rule="evenodd" d="M26.799 0V3.07492C26.799 9.21306 31.8331 14.1888 38.0429 14.1888H43.3429C43.8181 17.6353 45.4878 20.7062 47.9262 22.9806H45.2857L45.2585 22.9806H34.6033C32.2077 22.9806 29.8355 22.5142 27.6222 21.608C25.4293 20.7102 23.435 19.3981 21.7509 17.7455L22.6208 16.8856C25.3437 14.1942 25.3437 9.83056 22.6208 7.13917L17.6907 2.26597L13.9205 5.99257C12.6218 7.27629 11.9425 8.94044 11.8827 10.6221C8.71603 10.0884 5.34456 11.0296 2.90017 13.4456L0 16.3123L4.35011 20.6121C8.35425 24.57 14.8463 24.5699 18.8505 20.6122L18.8508 20.6121C20.9158 22.6411 23.3622 24.2518 26.0527 25.3534C28.7636 26.4633 31.6691 27.0346 34.6033 27.0346H36.1009C34.3435 28.9712 33.2038 31.4668 32.9882 34.2184C30.807 32.2729 27.9175 31.0885 24.7482 31.0885H17.3999V33.1155C17.3999 36.2367 18.59 39.0801 20.5429 41.231C17.4092 43.514 15.3553 47.1777 15.3131 51.2857C15.287 53.8418 16.0279 56.2241 17.3206 58.2222C18.549 60.1205 19.6562 62.0922 20.5748 64.1556C22.1069 67.5976 25.5787 70 29.6181 70C31.5289 70.0023 33.3991 69.4528 34.9998 68.4186C36.6007 69.4528 38.4709 70.0023 40.3817 70C44.4214 70 47.893 67.5974 49.4251 64.1556C50.3436 62.0922 51.4508 60.1205 52.6793 58.222C53.9722 56.2241 54.7128 53.842 54.6867 51.2859C54.6173 44.5065 49.0687 38.9371 42.2303 38.7862C40.3922 38.7457 38.6412 39.0924 37.0523 39.7483V35.1727C37.0523 30.6854 40.7266 27.0464 45.2635 27.0346H70V22.9806H64.6942V22.9804H58.2508C52.9069 22.9804 48.4575 19.1949 47.4975 14.1888L50.1768 14.1888C54.0274 14.1888 57.149 11.1032 57.149 7.29708V2.02695H50.1768C48.1073 2.02695 46.2484 2.91814 44.9715 4.33343C42.9155 1.69784 39.6893 0 36.0619 0H26.799ZM31.9623 39.3882C30.5737 36.8593 27.8638 35.1424 24.7482 35.1424H21.7599C22.1904 36.794 23.1348 38.2427 24.4165 39.3116C25.4833 38.9938 26.6079 38.8118 27.7697 38.7862C29.2353 38.7539 30.6455 38.9677 31.9623 39.3882ZM38.0429 10.1349C34.4343 10.1349 31.4507 7.48973 30.9685 4.05395H36.0619C39.6705 4.05395 42.6541 6.69909 43.1363 10.1349H38.0429ZM18.8507 14.879L17.4006 13.4457C17.3932 13.4383 17.3857 13.431 17.3783 13.4237L16.8206 12.8724C15.6994 11.7642 15.6994 9.96738 16.8206 8.85915L17.6907 7.99912L19.7208 10.0057C20.8419 11.114 20.8419 12.9108 19.7208 14.019L18.8507 14.879ZM14.4834 16.2954C12.0796 13.9376 8.19715 13.9431 5.80023 16.3122L7.2502 17.7455C9.65262 20.1202 13.5479 20.1203 15.9505 17.7455L14.4834 16.2954ZM47.3058 8.91866C47.3058 7.35144 48.5912 6.0809 50.1768 6.0809H53.0477V7.29708C53.0477 8.8643 51.7623 10.1348 50.1768 10.1348H47.3058V8.91866ZM20.3716 52.0924C20.4232 47.0739 24.5461 42.9511 29.6275 42.8395C31.6119 42.7959 33.4599 43.3575 34.9999 44.3471C36.54 43.3576 38.388 42.7959 40.3725 42.8395C45.4538 42.9512 49.5768 47.0741 49.6283 52.0925C49.6477 53.9847 49.0974 55.7481 48.1367 57.2271C47.2239 58.6325 46.4012 60.092 45.7186 61.6195C44.5802 64.1673 42.0006 65.9458 38.9989 65.9458C37.579 65.9476 36.1894 65.5408 34.9999 64.7752C33.8104 65.5408 32.4208 65.9476 31.0009 65.9458C27.9994 65.9458 25.4197 64.1674 24.2812 61.6195C23.5987 60.092 22.776 58.6325 21.8632 57.2272C20.9026 55.7481 20.3521 53.9846 20.3716 52.0924Z" fill="#7B914E"/>
  </g>
  <defs>
    <clipPath id="clip0_11408_20922">
      <rect width="70" height="70" fill="white"/>
    </clipPath>
  </defs>
</svg>