<svg xmlns="http://www.w3.org/2000/svg" width="70" height="70" viewBox="0 0 70 70" fill="none">
  <path fill-rule="evenodd" clip-rule="evenodd" d="M53.3679 1.60625C48.6868 2.57029 45.2416 6.65187 45.2416 11.2335C45.2416 15.841 48.7305 19.93 53.4636 20.8697C56.8238 21.537 60.2718 20.5212 62.7099 18.146C64.5905 16.3139 65.5008 14.3536 65.6774 11.7559C66.0563 6.18127 61.2459 1.34003 55.3866 1.39897C54.8013 1.40475 53.8929 1.49808 53.3679 1.60625ZM56.7397 5.47267C57.9227 5.71185 58.9018 6.23049 59.7907 7.089C63.3125 10.4899 61.3927 16.2199 56.4589 17.0332C54.5214 17.3526 52.6092 16.7522 51.1758 15.3742C48.7504 13.0429 48.7488 9.41261 51.1719 7.09202C52.6885 5.63965 54.6885 5.05786 56.7397 5.47267ZM32.6103 25.0973C28.8221 25.4778 25.4198 26.4112 22.043 27.996C20.6087 28.669 18.182 30.1544 10.7772 34.8918C5.58633 38.2127 1.28744 40.9759 1.22422 41.0323C1.12084 41.1243 3.22871 44.3135 3.39284 44.3135C3.4304 44.3135 4.14799 43.8723 4.98753 43.333C5.82707 42.7938 6.53293 42.3707 6.556 42.393C6.57922 42.4153 6.28371 42.9894 5.89931 43.6688C4.05705 46.9256 2.54607 50.7497 1.55167 54.6719C0.604802 58.4068 0.19978 61.424 0.083162 65.612L0 68.5984H35H70L69.9168 65.612C69.8002 61.424 69.3952 58.4068 68.4483 54.6719C67.4539 50.7497 65.9429 46.9256 64.1007 43.6688C63.7163 42.9894 63.4208 42.4153 63.444 42.393C63.4671 42.3707 64.1729 42.7938 65.0125 43.333C65.852 43.8723 66.5696 44.3135 66.6072 44.3135C66.7713 44.3135 68.8792 41.1243 68.7758 41.0323C68.2879 40.5976 49.5452 28.7535 48.5842 28.2726C45.896 26.9269 42.7657 25.9151 39.7111 25.4042C38.124 25.1388 33.9799 24.9597 32.6103 25.0973ZM37.5657 29.0947C40.967 29.4532 44.6853 30.6215 47.5631 32.2361L48.7238 32.8874L35 32.8879L21.2762 32.8884L22.2321 32.3481C25.311 30.6081 29.1938 29.3957 32.8151 29.0434C33.901 28.9378 36.3255 28.964 37.5657 29.0947ZM54.7751 37.8079C59.1446 42.2298 62.6581 48.6759 64.4235 55.509C65.1407 58.2849 65.4605 60.2696 65.7762 63.9055L65.8416 64.6603H59.5997H53.3576L53.1934 63.1835C52.8029 59.6718 51.3182 55.5522 49.3859 52.6195C47.9596 50.4547 45.6137 48.0677 43.679 46.8127C42.2311 45.8735 40.3927 45.0538 38.7473 44.6142C37.5024 44.2816 37.1913 44.2514 35 44.2514C32.8087 44.2514 32.4976 44.2816 31.2527 44.6142C29.5878 45.0591 27.703 45.9034 26.3038 46.8311C24.305 48.1563 22.0293 50.4714 20.6141 52.6195C18.6818 55.5522 17.1971 59.6718 16.8066 63.1835L16.6424 64.6603H10.4003H4.15837L4.22378 63.9055C4.54004 60.2633 4.85917 58.2852 5.58114 55.4909C7.33683 48.6957 10.8812 42.1826 15.1822 37.8484L16.1916 36.8311H35.0008H53.8099L54.7751 37.8079ZM32.9517 56.456V64.6603H26.875H20.7983V64.2795C20.7983 63.42 21.3665 60.7967 21.8754 59.3068C23.4944 54.5674 26.6807 50.7556 30.4066 49.1006C31.2514 48.7255 31.7855 48.5467 32.9175 48.2603C32.9362 48.2555 32.9517 51.9436 32.9517 56.456ZM39.7111 49.1598C43.9972 51.0921 47.5657 56.0082 48.7888 61.6655C48.9341 62.338 49.0949 63.287 49.1463 63.7743L49.2394 64.6603H43.1439H37.0483V56.4684V48.2765L37.8335 48.472C38.2654 48.5794 39.1103 48.889 39.7111 49.1598Z" fill="#7B914E"/>
</svg>