<svg width="30" height="30" viewBox="0 0 30 30" fill="none" xmlns="http://www.w3.org/2000/svg">
<circle cx="15" cy="15" r="15" fill="#7B914E"/>
<path fill-rule="evenodd" clip-rule="evenodd" d="M14.7782 1.73246C14.7524 2.94976 14.706 3.94573 14.6752 3.94573C14.6443 3.94573 14.619 4.46537 14.619 5.10048C14.619 6.08414 14.605 6.25523 14.5238 6.25523C14.4413 6.25523 14.4286 6.50825 14.4286 8.14774V10.0402H14.2332C13.9495 10.0402 13.6667 10.3436 13.6667 10.648C13.6667 11.0606 13.8663 11.3233 14.1798 11.3233C14.2971 11.3233 14.3016 11.3934 14.3016 13.2479V15.1725H14.1111H13.9206V15.8425V16.5126L13.619 16.5322L13.3175 16.5517L13.2987 16.9824L13.28 17.4131L12.6956 17.4315L12.1111 17.4499L12.0926 17.9471C12.0823 18.2205 12.099 18.4442 12.1297 18.4442C12.1603 18.4442 12.1403 18.6463 12.0852 18.8933L11.9851 19.3424H11.4926H11V20.2985V21.2547L11.217 21.6425L11.434 22.0304L11.3123 22.2717C11.1029 22.6865 11.1964 23.1639 11.5406 23.4374C11.701 23.5649 11.789 23.5765 12.5959 23.5765H13.4762V24.3639C13.4762 25.041 13.2378 26.7639 13.1276 28.4387L13.0907 29H15H16.9093L16.8726 28.4387C16.7573 26.6736 16.5238 25.0741 16.5238 24.3854V23.5765H17.4825H18.4413L18.6491 23.3664C18.9536 23.0588 18.998 22.7067 18.7868 22.2755L18.6246 21.9444L18.8123 21.5943C18.9962 21.2512 19 21.2249 19 20.2933V19.3424H18.6241H18.2483L18.1355 19.0056C18.0512 18.7539 18.0272 18.5106 18.0403 18.0433L18.0578 17.4178H17.386H16.7143V16.9687V16.5197H16.399H16.0838L16.0657 15.8621L16.0476 15.2045L15.873 15.1843L15.6984 15.1639V13.2436V11.3233H15.8451C16.1592 11.3233 16.3909 10.9004 16.3018 10.4901C16.2498 10.2509 15.9929 10.0402 15.7533 10.0402H15.5714V8.14774C15.5714 6.50825 15.5587 6.25523 15.4762 6.25523C15.395 6.25523 15.381 6.08414 15.381 5.10048C15.381 4.46537 15.3557 3.94573 15.3248 3.94573C15.294 3.94573 15.2476 2.94976 15.2218 1.73246L15.1749 1H15H14.8251L14.7782 1.73246ZM16.3968 17.1933V17.4178H15H13.6032V17.1933V16.9687H15H16.3968V17.1933ZM17.9206 19.0223V19.3437L15.1111 19.327L12.3016 19.3103L12.2822 19.0056L12.2629 18.7009H15.0917H17.9206V19.0223Z" fill="white"/>
</svg>
