<svg xmlns="http://www.w3.org/2000/svg" width="130" height="130" viewBox="0 0 130 130" fill="none">
  <rect width="130" height="130" rx="15" fill="#7B914E"/>
  <path fill-rule="evenodd" clip-rule="evenodd" d="M76.2771 53.5676C76.1444 50.7619 75.4365 47.6922 74.3083 44.6115C74.1092 45.2166 73.9322 45.8658 73.7441 46.5699C73.1358 48.7815 72.439 51.3341 70.8019 53.9527C69.9392 55.328 69.2534 56.7363 68.7114 58.1227C70.636 57.9026 71.7532 56.8904 72.8925 55.8561C73.8658 54.9759 74.8392 54.0847 76.2882 53.5786L76.2771 53.5676ZM66.9196 65.6705C73.6888 64.8013 76.3213 60.2902 76.2992 54.4698C75.1268 54.9539 74.2751 55.7131 73.4455 56.4613C72.1182 57.6716 70.813 58.8489 68.3796 58.9809C68.1916 59.52 68.0257 60.0481 67.8708 60.5653C67.3178 62.4907 67.0412 64.2511 66.9196 65.6705ZM65.2936 70.4236C65.0613 70.0275 64.8512 69.5764 64.6742 69.1033C64.2981 68.091 64.0437 66.9138 63.9995 65.9125L65.6586 65.8575C65.7029 66.7157 65.9241 67.739 66.2559 68.6412C66.5546 69.4444 66.9196 70.1155 67.2846 70.4126L67.2735 70.4236H65.2936ZM53.6907 54.8329C53.7792 60.2792 56.2569 64.5152 62.3957 65.5714C61.179 63.613 60.4379 61.3795 59.8185 59.0799C59.7189 59.0799 59.6083 59.0799 59.4977 59.0689C58.4691 58.9919 57.2966 58.5078 56.1795 57.6386C55.2835 56.9454 54.4097 56.0102 53.6797 54.8329H53.6907ZM55.1065 46.3279C54.3655 48.6714 53.8898 50.993 53.7461 53.1495C53.8235 53.3145 53.9009 53.4906 53.9894 53.6446C54.7415 55.075 55.7038 56.1972 56.7104 56.9674C57.6948 57.7266 58.7124 58.1557 59.5751 58.2217H59.6083C59.4535 57.6166 59.3097 57.0114 59.1548 56.4063C58.2589 52.7314 57.363 49.0455 55.1065 46.3279ZM59.8738 36.0404C58.1815 38.7911 56.7325 41.7508 55.6706 44.6775C56.9095 45.9538 57.8054 47.4501 58.5133 49.0565C59.7521 46.702 60.2388 43.8743 60.272 41.1016C60.2941 39.3412 60.1393 37.6138 59.8738 36.0404ZM64.2539 30C62.9377 31.5294 61.6878 33.2128 60.5374 34.9952C60.9025 36.8546 61.1347 38.9671 61.1126 41.1126C61.0684 44.2484 60.4821 47.4501 58.9115 50.0468C59.6304 51.9612 60.1282 54.0077 60.637 56.0542C61.4223 59.278 62.2076 62.5127 63.911 65.0983C62.8381 58.6068 63.3801 51.7192 63.9 45.0846C64.3203 39.7703 64.7185 34.6211 64.265 30.011L64.2539 30ZM70.1272 36.0404C68.7999 33.8839 67.3399 31.8484 65.7803 30.044C66.2227 34.7311 65.8135 39.8913 65.3932 45.1946C65.2162 47.4722 65.0282 49.7827 64.9176 52.0932C68.0035 49.6947 68.4902 45.7667 68.9658 41.9488C69.2202 39.8693 69.4746 37.8339 70.1272 36.0404ZM73.4787 42.532C72.6823 40.6505 71.7421 38.7911 70.6913 36.9977C70.2268 38.549 70.0056 40.2874 69.7954 42.0479C69.2755 46.2619 68.7336 50.6189 64.8622 53.1605C64.6963 57.2535 64.7627 61.3354 65.4485 65.2194C65.5812 63.767 65.8799 62.0286 66.4218 60.1582C67.0634 57.9246 68.0478 55.5041 69.5189 53.1605C71.0342 50.7399 71.7089 48.2973 72.2841 46.1848C72.6602 44.8205 72.992 43.5772 73.4897 42.543L73.4787 42.532Z" fill="#F4F7F0"/>
  <path fill-rule="evenodd" clip-rule="evenodd" d="M48.0176 79.5451H50.4731C50.6501 79.5451 50.7939 79.5231 50.9266 79.49C51.0483 79.457 51.1478 79.402 51.2252 79.336C51.3027 79.27 51.358 79.193 51.4022 79.0939C51.4465 78.9949 51.4575 78.8739 51.4575 78.7309C51.4575 78.5988 51.4354 78.4778 51.4022 78.3678C51.358 78.2688 51.3027 78.1807 51.2252 78.1147C51.1478 78.0377 51.0483 77.9937 50.9377 77.9497C50.816 77.9167 50.6833 77.8947 50.5173 77.8947H48.0176V79.5451ZM46.9668 82.9669V76.9154H50.5173C50.827 76.9154 51.0925 76.9594 51.3358 77.0365C51.5792 77.1135 51.8004 77.2345 51.9774 77.3995C52.1544 77.5646 52.2981 77.7516 52.3866 77.9717C52.4751 78.1917 52.5194 78.4338 52.5194 78.7089C52.5194 78.9399 52.4862 79.149 52.4198 79.358C52.3535 79.5561 52.2428 79.7431 52.0991 79.9081C51.9553 80.0732 51.7893 80.2052 51.6124 80.3152C51.4907 80.3813 51.3469 80.4473 51.2031 80.4803L52.7074 83.1209H51.546L50.0638 80.5353H48.0065V83.1209H46.9668V82.9669ZM58.2268 80.5353H60.3505L59.2776 78.4118L58.2157 80.5353H58.2268ZM55.9372 82.9009L58.8904 76.9154H59.6868L62.7728 83.1209H61.6335L60.8261 81.5365H57.729L56.9437 83.1209H55.8155L55.9261 82.9009H55.9372ZM66.3123 82.9669V76.9154H67.2304L69.5531 80.4033L71.887 76.9154H72.794V83.1209H71.7653V78.8519L69.5642 82.1197L67.3631 78.8519V83.1209H66.3344V82.9669H66.3123ZM77.0192 81.9986L77.5391 81.2285L77.6608 81.3275C77.8599 81.4815 78.07 81.6245 78.2802 81.7456C78.4903 81.8666 78.7116 81.9656 78.9328 82.0537C79.154 82.1307 79.3642 82.1967 79.5854 82.2407C79.7955 82.2847 80.0167 82.3067 80.2269 82.3067C80.4924 82.3067 80.7246 82.2847 80.9348 82.2297C81.145 82.1747 81.3219 82.0977 81.4768 81.9876C81.6316 81.8886 81.7422 81.7676 81.8197 81.6356C81.886 81.5145 81.9303 81.3715 81.9303 81.2175C81.9303 80.9754 81.8307 80.7773 81.6206 80.6233C81.51 80.5463 81.3772 80.4693 81.2224 80.4253C81.0675 80.3703 80.8795 80.3372 80.6804 80.3262C80.6362 80.3152 80.5698 80.3152 80.4924 80.3152L80.238 80.3042C79.7513 80.2712 79.331 80.2272 78.9881 80.1612C78.6452 80.1062 78.3797 80.0292 78.1917 79.9411C78.0479 79.8751 77.9152 79.7871 77.8046 79.6991C77.6829 79.6001 77.5944 79.501 77.5059 79.38C77.4285 79.259 77.3621 79.138 77.3289 79.0059C77.2847 78.8739 77.2736 78.7309 77.2736 78.5878C77.2736 78.3238 77.329 78.0817 77.4506 77.8727C77.5723 77.6526 77.7493 77.4656 77.9705 77.3005C78.2028 77.1355 78.4572 77.0145 78.7558 76.9374C79.0434 76.8604 79.3642 76.8164 79.7181 76.8164C79.9725 76.8164 80.2269 76.8384 80.4813 76.8824C80.7357 76.9264 80.979 76.9814 81.2334 77.0695C81.4878 77.1575 81.7201 77.2565 81.9635 77.3775C82.1957 77.4986 82.428 77.6416 82.6492 77.8066L82.7709 77.8947L82.1626 78.7639L82.0409 78.6648C81.8639 78.5218 81.6869 78.4008 81.4989 78.2908C81.3109 78.1807 81.1228 78.0927 80.9348 78.0267C80.7357 77.9607 80.5477 77.9057 80.3486 77.8727C80.1495 77.8396 79.9504 77.8176 79.7402 77.8176C79.5301 77.8176 79.331 77.8397 79.1651 77.8837C78.9991 77.9277 78.8443 77.9827 78.7116 78.0597C78.5899 78.1367 78.4903 78.2137 78.435 78.3018C78.3797 78.3898 78.3465 78.4778 78.3465 78.5768C78.3465 78.6208 78.3466 78.6538 78.3576 78.6869C78.3687 78.7199 78.3797 78.7529 78.4019 78.7859C78.4092 78.8079 78.4264 78.8299 78.4436 78.8519C78.4522 78.8629 78.4608 78.8739 78.4682 78.8849C78.5014 78.9179 78.5346 78.9509 78.5788 78.9839C78.6784 79.0609 78.8554 79.127 79.0987 79.182C79.3531 79.237 79.6849 79.281 80.0721 79.303C80.2601 79.314 80.4371 79.325 80.5698 79.336C80.7136 79.347 80.8463 79.358 80.9459 79.369C81.2556 79.402 81.5432 79.468 81.7976 79.5781C82.052 79.6771 82.2732 79.8201 82.4612 79.9852C82.6492 80.1612 82.793 80.3482 82.8926 80.5683C82.9921 80.7773 83.0364 81.0194 83.0364 81.2725C83.0364 81.5695 82.97 81.8446 82.8373 82.0977C82.7045 82.3397 82.5165 82.5598 82.251 82.7578C81.9966 82.9449 81.698 83.0879 81.3662 83.1869C81.0344 83.2859 80.6693 83.33 80.2601 83.33C79.9614 83.33 79.6628 83.308 79.3863 83.2639C79.0987 83.2199 78.8332 83.1539 78.5678 83.0659C78.3023 82.9779 78.0479 82.8678 77.8046 82.7358C77.5612 82.6038 77.3179 82.4387 77.0746 82.2627L76.9639 82.1747L77.0414 82.0537L77.0192 81.9986ZM102.424 97.7653V88.7652H103.01L108.883 95.4878V88.7652H110.001V97.7653H109.436L103.541 91.0427V97.7653H102.424ZM87.0264 88.7652V97.7653H94.5146V96.7311H88.1435V93.4743H91.7715V92.4401H88.1435V89.7994H94.1385V88.7652H87.0264ZM74.3619 88.7652C75.7887 88.7652 76.928 89.1833 77.8018 90.0195C78.6756 90.8557 79.107 91.945 79.107 93.2873C79.107 94.6406 78.6756 95.7299 77.8239 96.544C76.9612 97.3582 75.8108 97.7653 74.3619 97.7653H70.4795V88.7652H74.3619ZM74.3619 89.7994H71.6077V96.7311H74.3619C75.479 96.7311 76.3528 96.423 76.9944 95.7959C77.6359 95.1687 77.9567 94.3325 77.9567 93.2763C77.9567 92.231 77.6359 91.3948 76.9833 90.7567C76.3307 90.1185 75.4569 89.7994 74.3729 89.7994H74.3619ZM54.443 88.7652V97.7653H55.5491V93.8264H59.0665L61.334 97.7653H62.5728L60.3164 93.8044C60.9689 93.6944 61.4777 93.3973 61.8759 92.9352C62.2631 92.4731 62.4622 91.9119 62.4622 91.2628C62.4622 90.4816 62.2078 89.8655 61.71 89.4254C61.2012 88.9853 60.5155 88.7652 59.6306 88.7652H54.443ZM59.5642 92.7702H55.5712V89.7994H59.6195C60.1615 89.7994 60.5708 89.9315 60.8583 90.1955C61.157 90.4596 61.3008 90.8227 61.3008 91.2958C61.3008 91.7799 61.157 92.154 60.8583 92.3961C60.5597 92.6491 60.1283 92.7702 59.5642 92.7702ZM36.6797 97.7653L41.1151 88.7652H42.0442L46.5239 97.7653H45.3072L44.0794 95.3448H39.0799L37.8853 97.7653H36.6797ZM39.5998 94.2885H43.5817L41.5797 90.3056L39.5998 94.2885ZM27.6431 94.0025V95.3228L27.6652 95.3448C27.3002 95.8729 26.8688 96.28 26.3821 96.5551C25.8844 96.8302 25.3203 96.9622 24.6898 96.9622C23.6722 96.9622 22.8316 96.6211 22.1679 95.9279C21.5043 95.2348 21.1725 94.3546 21.1725 93.2983C21.1725 92.2421 21.5043 91.3619 22.1679 90.6687C22.8316 89.9755 23.6722 89.6234 24.6898 89.6234C25.3424 89.6234 25.9508 89.7775 26.4817 90.0856C27.0126 90.3936 27.4219 90.8117 27.7094 91.3509L28.6496 90.6797C28.2182 89.9975 27.6541 89.4804 26.9684 89.1173C26.2826 88.7432 25.5194 88.5672 24.6788 88.5672C23.3293 88.5672 22.2122 89.0073 21.3273 89.8985C20.4424 90.7897 20 91.923 20 93.2873C20 94.6516 20.4424 95.7739 21.3273 96.6651C22.2011 97.5453 23.3293 97.9964 24.6788 97.9964C25.5636 97.9964 26.36 97.7984 27.0679 97.4023C27.7647 96.9952 28.3399 96.4231 28.7713 95.6749V92.9682H25.1765V94.0025H27.6431Z" fill="#F4F7F0"/>
  <path d="M42.5973 103.431H42.0664V108.558H42.5973V103.431ZM44.0131 106.721V108.558H44.544V106.655C44.544 106.391 44.4998 106.171 44.4113 105.995C44.3228 105.819 44.2012 105.687 44.0463 105.599C43.8915 105.511 43.7034 105.467 43.4933 105.467C43.2831 105.467 43.0951 105.522 42.9402 105.632C42.7854 105.742 42.6526 105.885 42.5641 106.072C42.4757 106.259 42.4204 106.468 42.4204 106.71H42.5973C42.5973 106.567 42.6305 106.435 42.6969 106.325C42.7632 106.215 42.8517 106.116 42.9623 106.061C43.084 105.995 43.2167 105.962 43.3716 105.962C43.5817 105.962 43.7477 106.028 43.8583 106.149C43.9689 106.281 44.0242 106.468 44.0242 106.71L44.0131 106.721ZM45.7718 107.623C45.7718 107.513 45.7939 107.414 45.8492 107.337C45.9045 107.26 45.982 107.194 46.0926 107.15C46.2032 107.106 46.3359 107.084 46.5129 107.084C46.7009 107.084 46.8668 107.106 47.0327 107.15C47.1987 107.194 47.3535 107.271 47.5084 107.381V107.073C47.4752 107.029 47.4199 106.985 47.3314 106.919C47.2429 106.853 47.1212 106.798 46.9774 106.743C46.8337 106.688 46.6456 106.666 46.4244 106.666C46.0483 106.666 45.7607 106.754 45.5506 106.93C45.3404 107.106 45.2409 107.348 45.2409 107.634C45.2409 107.843 45.2851 108.019 45.3847 108.162C45.4842 108.305 45.6059 108.415 45.7718 108.492C45.9377 108.569 46.1036 108.602 46.2917 108.602C46.4576 108.602 46.6235 108.569 46.8005 108.514C46.9664 108.448 47.1102 108.36 47.2318 108.228C47.3535 108.107 47.4088 107.942 47.4088 107.744L47.3093 107.348C47.3093 107.502 47.265 107.645 47.1987 107.766C47.1212 107.887 47.0217 107.975 46.889 108.041C46.7562 108.107 46.6124 108.14 46.4465 108.14C46.3138 108.14 46.2032 108.118 46.1036 108.074C46.0041 108.03 45.9267 107.975 45.8714 107.887C45.816 107.799 45.7939 107.7 45.7939 107.59L45.7718 107.623ZM45.6944 106.226C45.7386 106.193 45.805 106.149 45.8935 106.105C45.982 106.061 46.0815 106.017 46.2032 105.984C46.3249 105.951 46.4576 105.929 46.6124 105.929C46.7009 105.929 46.7894 105.94 46.8779 105.951C46.9664 105.973 47.0327 105.995 47.0991 106.039C47.1655 106.083 47.2097 106.138 47.2429 106.204C47.2761 106.27 47.2982 106.358 47.2982 106.468V108.569H47.8291V106.402C47.8291 106.204 47.7738 106.039 47.6743 105.907C47.5747 105.775 47.4309 105.665 47.254 105.599C47.077 105.533 46.8668 105.489 46.6346 105.489C46.347 105.489 46.1147 105.533 45.9156 105.61C45.7165 105.698 45.5616 105.775 45.44 105.863L45.6944 106.248V106.226ZM49.2449 105.533H48.714V108.558H49.2449V105.533ZM50.163 106.116L50.4506 105.687C50.3731 105.599 50.2846 105.544 50.1851 105.522C50.0856 105.489 49.986 105.478 49.8754 105.478C49.7316 105.478 49.5989 105.533 49.4551 105.643C49.3224 105.753 49.2117 105.896 49.1233 106.083C49.0348 106.27 48.9905 106.479 48.9905 106.721H49.2339C49.2339 106.578 49.2449 106.446 49.2781 106.336C49.3113 106.226 49.3555 106.127 49.433 106.072C49.5104 106.006 49.6099 105.973 49.7427 105.973C49.8312 105.973 49.8975 105.984 49.9639 106.006C50.0192 106.028 50.0856 106.072 50.1519 106.116H50.163ZM55.1404 106.655C55.1404 106.402 55.0961 106.193 55.0298 106.017C54.9523 105.841 54.8417 105.709 54.6979 105.61C54.5542 105.522 54.3772 105.467 54.167 105.467C53.9679 105.467 53.7799 105.511 53.625 105.61C53.4702 105.709 53.3375 105.841 53.2268 106.028C53.1605 105.852 53.0499 105.709 52.895 105.61C52.7402 105.511 52.5632 105.467 52.353 105.467C52.165 105.467 51.9991 105.511 51.8664 105.588C51.7226 105.676 51.612 105.797 51.5235 105.973V105.533H50.9925V108.558H51.5235V106.721C51.5235 106.567 51.5567 106.424 51.612 106.314C51.6673 106.204 51.7557 106.116 51.8553 106.05C51.9548 105.995 52.0876 105.962 52.2314 105.962C52.4305 105.962 52.5743 106.028 52.6738 106.149C52.7733 106.27 52.8176 106.457 52.8176 106.721V108.558H53.3485V106.721C53.3485 106.567 53.3817 106.424 53.437 106.314C53.4923 106.204 53.5808 106.116 53.6803 106.05C53.791 105.995 53.9126 105.962 54.0564 105.962C54.2555 105.962 54.3993 106.028 54.4988 106.149C54.5984 106.27 54.6426 106.457 54.6426 106.721V108.558H55.1736V106.655H55.1404ZM55.8704 107.051C55.8704 107.348 55.9368 107.623 56.0806 107.865C56.2133 108.107 56.4013 108.294 56.6447 108.426C56.888 108.558 57.1535 108.635 57.441 108.635C57.7397 108.635 58.0052 108.569 58.2485 108.426C58.4808 108.294 58.6688 108.107 58.8126 107.865C58.9564 107.623 59.0228 107.359 59.0228 107.051C59.0228 106.743 58.9564 106.479 58.8126 106.237C58.6688 105.995 58.4918 105.819 58.2485 105.676C58.0162 105.544 57.7397 105.467 57.441 105.467C57.1424 105.467 56.8769 105.533 56.6447 105.676C56.4013 105.808 56.2133 105.995 56.0806 106.237C55.9368 106.479 55.8704 106.743 55.8704 107.051ZM56.4013 107.051C56.4013 106.842 56.4456 106.655 56.5341 106.49C56.6225 106.325 56.7442 106.193 56.8991 106.105C57.0539 106.017 57.2309 105.962 57.43 105.962C57.6291 105.962 57.8061 106.006 57.9609 106.105C58.1158 106.193 58.2374 106.325 58.3259 106.49C58.4144 106.655 58.4586 106.842 58.4586 107.051C58.4586 107.26 58.4144 107.447 58.3259 107.612C58.2374 107.777 58.1158 107.898 57.9609 107.997C57.8061 108.096 57.6291 108.14 57.43 108.14C57.2309 108.14 57.0539 108.096 56.8991 107.997C56.7442 107.898 56.6225 107.777 56.5341 107.612C56.4456 107.447 56.4013 107.26 56.4013 107.051ZM61.6884 106.721V108.558H62.2194V106.655C62.2194 106.292 62.1309 106.006 61.9428 105.786C61.7548 105.577 61.5004 105.467 61.1796 105.467C60.9805 105.467 60.8036 105.511 60.6598 105.599C60.5049 105.687 60.3832 105.819 60.2837 106.006V105.533H59.7528V108.558H60.2837V106.721C60.2837 106.567 60.3169 106.446 60.3832 106.325C60.4496 106.215 60.5381 106.127 60.6487 106.061C60.7704 105.995 60.9031 105.962 61.058 105.962C61.2681 105.962 61.434 106.028 61.5446 106.149C61.6552 106.281 61.7106 106.468 61.7106 106.71L61.6884 106.721ZM65.5819 105.533H64.9846L64.0444 107.876L64.2656 107.898L63.3033 105.533H62.6728L63.8342 108.129L63.0047 110H63.602L65.5819 105.533ZM68.0595 103.431V108.558H68.5904V103.431H68.0595ZM69.5748 104.289C69.5748 104.388 69.608 104.465 69.6855 104.543C69.7629 104.62 69.8403 104.653 69.9399 104.653C70.0394 104.653 70.1279 104.62 70.1943 104.543C70.2606 104.465 70.3049 104.388 70.3049 104.289C70.3049 104.19 70.2717 104.102 70.1943 104.036C70.1279 103.97 70.0394 103.926 69.9399 103.926C69.8403 103.926 69.7629 103.959 69.6855 104.036C69.6191 104.102 69.5748 104.19 69.5748 104.289ZM69.6744 105.533V108.558H70.2053V105.533H69.6744ZM71.057 105.533V106.028H72.5723V105.533H71.057ZM72.5281 104.058L72.8157 103.629C72.7825 103.585 72.7383 103.541 72.683 103.508C72.6276 103.464 72.5613 103.431 72.4839 103.409C72.4064 103.387 72.3179 103.365 72.2295 103.365C72.0414 103.365 71.8866 103.398 71.7538 103.475C71.6211 103.552 71.5216 103.662 71.4552 103.816C71.3888 103.97 71.3556 104.168 71.3556 104.41V108.547H71.8866V104.477C71.8866 104.333 71.8976 104.212 71.9308 104.124C71.9529 104.036 71.9972 103.97 72.0414 103.937C72.0857 103.904 72.141 103.882 72.2073 103.882C72.2626 103.882 72.3179 103.893 72.3732 103.915C72.4286 103.937 72.4839 103.981 72.5281 104.058ZM74.3531 108.624C74.6739 108.624 74.9615 108.558 75.2048 108.426C75.4482 108.294 75.6473 108.107 75.8021 107.854L75.3708 107.59C75.2601 107.777 75.1274 107.909 74.9726 107.997C74.8177 108.085 74.6297 108.129 74.4195 108.129C74.2094 108.129 74.0324 108.085 73.8886 107.997C73.7448 107.909 73.6342 107.788 73.5568 107.612C73.4793 107.447 73.4462 107.249 73.4462 107.007C73.4462 106.776 73.4904 106.578 73.5678 106.424C73.6453 106.27 73.7559 106.138 73.8997 106.061C74.0434 105.973 74.2204 105.929 74.4195 105.929C74.5965 105.929 74.7403 105.962 74.873 106.039C75.0057 106.116 75.1053 106.215 75.1717 106.347C75.238 106.479 75.2823 106.633 75.2823 106.809C75.2823 106.842 75.2712 106.875 75.2601 106.919C75.2491 106.963 75.238 106.996 75.2159 107.018L75.4261 106.721H73.2471V107.172H75.8464C75.8464 107.161 75.8464 107.139 75.8464 107.106C75.8464 107.073 75.8464 107.04 75.8464 107.007C75.8464 106.688 75.7911 106.413 75.6694 106.182C75.5588 105.951 75.3929 105.775 75.1827 105.643C74.9726 105.522 74.7182 105.456 74.4085 105.456C74.1098 105.456 73.8443 105.522 73.6231 105.654C73.4019 105.786 73.2249 105.973 73.0922 106.204C72.9705 106.446 72.9042 106.721 72.9042 107.029C72.9042 107.337 72.9595 107.612 73.0811 107.854C73.2028 108.096 73.3687 108.272 73.5899 108.404C73.8112 108.536 74.0545 108.602 74.3421 108.602L74.3531 108.624ZM76.7091 107.634L76.2888 107.887C76.3441 108.008 76.4326 108.118 76.5432 108.239C76.6538 108.349 76.7976 108.448 76.9525 108.514C77.1184 108.591 77.2953 108.624 77.5055 108.624C77.8152 108.624 78.0696 108.536 78.2576 108.36C78.4457 108.184 78.5452 107.964 78.5452 107.7C78.5452 107.524 78.501 107.37 78.4125 107.26C78.324 107.15 78.2134 107.051 78.0696 106.963C77.9258 106.886 77.7599 106.809 77.5829 106.732C77.4723 106.688 77.3728 106.644 77.2843 106.6C77.1847 106.556 77.1073 106.501 77.0409 106.435C76.9746 106.369 76.9525 106.303 76.9525 106.226C76.9525 106.127 76.9967 106.05 77.0741 106.006C77.1516 105.962 77.2511 105.929 77.3617 105.929C77.5166 105.929 77.6604 105.962 77.7931 106.039C77.9148 106.116 78.0254 106.204 78.1028 106.325L78.5231 106.061C78.4567 105.951 78.3793 105.852 78.2687 105.764C78.1581 105.676 78.0364 105.61 77.8926 105.555C77.7488 105.5 77.594 105.478 77.4391 105.478C77.2732 105.478 77.1184 105.511 76.9635 105.566C76.8087 105.621 76.687 105.709 76.5985 105.83C76.499 105.951 76.4547 106.094 76.4547 106.281C76.4547 106.457 76.499 106.6 76.5874 106.721C76.6759 106.842 76.7865 106.93 76.9193 107.007C77.052 107.084 77.1847 107.139 77.3175 107.194C77.4391 107.238 77.5497 107.282 77.6493 107.337C77.7599 107.392 77.8373 107.447 77.9148 107.524C77.9811 107.59 78.0143 107.689 78.0143 107.788C78.0143 107.909 77.9701 107.997 77.8816 108.063C77.7931 108.129 77.6825 108.162 77.5276 108.162C77.406 108.162 77.2953 108.14 77.1847 108.096C77.0852 108.052 76.9856 107.986 76.9082 107.909C76.8308 107.832 76.7534 107.744 76.6981 107.656L76.7091 107.634ZM78.7886 105.533V106.028H80.3039V105.533H78.7886ZM79.2863 104.477V108.547H79.8172V104.477H79.2863ZM83.2461 105.533H82.6488L81.7086 107.876L81.9299 107.898L80.9676 105.533H80.3371L81.4985 108.129L80.6689 110H81.2662L83.2461 105.533ZM83.7438 103.431V108.558H84.2748V103.431H83.7438ZM86.4427 108.624C86.7635 108.624 87.051 108.558 87.2944 108.426C87.5377 108.294 87.7368 108.107 87.8917 107.854L87.4603 107.59C87.3497 107.777 87.217 107.909 87.0621 107.997C86.9073 108.085 86.7192 108.129 86.5201 108.129C86.31 108.129 86.133 108.085 85.9892 107.997C85.8454 107.909 85.7348 107.788 85.6574 107.612C85.58 107.447 85.5468 107.249 85.5468 107.007C85.5468 106.776 85.591 106.578 85.6684 106.424C85.7459 106.27 85.8565 106.138 86.0003 106.061C86.1441 105.973 86.321 105.929 86.5201 105.929C86.686 105.929 86.8409 105.962 86.9736 106.039C87.1064 106.116 87.2059 106.215 87.2723 106.347C87.3497 106.479 87.3829 106.633 87.3829 106.809C87.3829 106.842 87.3718 106.875 87.3608 106.919C87.3497 106.963 87.3386 106.996 87.3165 107.018L87.5267 106.721H85.3477V107.172H87.947C87.947 107.161 87.947 107.139 87.947 107.106C87.947 107.073 87.947 107.04 87.947 107.007C87.947 106.688 87.8917 106.413 87.77 106.182C87.6594 105.951 87.4935 105.775 87.2833 105.643C87.0732 105.522 86.8188 105.456 86.5091 105.456C86.2104 105.456 85.945 105.522 85.7237 105.654C85.5025 105.786 85.3256 105.973 85.1928 106.204C85.0712 106.446 85.0048 106.721 85.0048 107.029C85.0048 107.337 85.0712 107.612 85.1818 107.854C85.3034 108.096 85.4693 108.272 85.6906 108.404C85.9118 108.536 86.1551 108.602 86.4427 108.602V108.624Z" fill="#F4F7F0"/>
</svg>