<svg width="440" height="336" viewBox="0 0 440 336" fill="none" xmlns="http://www.w3.org/2000/svg">
<path fill-rule="evenodd" clip-rule="evenodd" d="M440 24.15C440 15.6076 440 11.3365 438.311 8.08538C436.888 5.34574 434.654 3.11193 431.915 1.6888C428.664 0 424.392 0 415.85 0H24.15C15.6076 0 11.3365 0 8.08538 1.6888C5.34574 3.11193 3.11193 5.34574 1.6888 8.08538C0 11.3365 0 15.6076 0 24.15V311.85C0 320.392 0 324.664 1.6888 327.915C3.11193 330.654 5.34574 332.888 8.08538 334.311C11.3365 336 15.6076 336 24.15 336H328.85C337.392 336 341.664 336 344.915 334.311C347.654 332.888 349.888 330.654 351.311 327.915C353 324.664 353 320.392 353 311.85V273.15C353 264.608 353 260.336 354.689 257.085C356.112 254.346 358.346 252.112 361.085 250.689C364.336 249 368.608 249 377.15 249H415.85C424.392 249 428.664 249 431.915 247.311C434.654 245.888 436.888 243.654 438.311 240.915C440 237.664 440 233.392 440 224.85V24.15Z" fill="#F2F2F3"/>
</svg>
