<svg width="230" height="234" viewBox="0 0 230 234" fill="none" xmlns="http://www.w3.org/2000/svg">
<g id="Subtract">
<path d="M0 50.9448L23.0975 34.2945H23.7347V234H51.4516V3.82822H23.4161L0 20.6814V50.9448Z" fill="white"/>
<path d="M152.743 0C109.415 0 76.9194 29.9877 76.9194 70.184V70.3436H104.636V70.184C104.636 44.5031 125.026 25.0429 151.946 25.0429C177.274 25.0429 197.504 42.7485 197.504 64.9202C197.504 84.0613 190.177 96.3436 159.274 128.883L78.3531 214.221V234H230V208.479H118.017V207.84L176.159 147.706C214.549 107.988 226.177 88.8466 226.177 63.1656C226.177 27.9141 193.84 0 152.743 0Z" fill="white"/>
</g>
</svg>
