<svg width="30" height="31" viewBox="0 0 30 31" fill="none" xmlns="http://www.w3.org/2000/svg">
<circle cx="15" cy="15.5" r="15" fill="#7B914E"/>
<path fill-rule="evenodd" clip-rule="evenodd" d="M20.6008 17.6796V20.0075C20.6008 20.3136 20.4296 20.5938 20.1586 20.7308L16.6198 22.5174C16.2279 22.7159 15.8689 22.9712 15.5532 23.2763C15.2438 23.5746 14.7562 23.5746 14.4468 23.2763C14.1311 22.9712 13.7721 22.7159 13.3798 22.5174L9.84134 20.7308C9.57036 20.5938 9.39918 20.3136 9.39918 20.0075V17.6796L14.3406 19.1061C14.7632 19.228 15.2214 19.2325 15.6591 19.1061L20.6008 17.6796ZM14.7802 17.5516L3.57828 14.3187C2.80788 14.0961 2.8066 12.9869 3.57828 12.7642L14.7802 9.53103C14.9239 9.48966 15.0761 9.48966 15.2198 9.53103L26.4217 12.7642C27.1921 12.9866 27.1934 14.0957 26.4217 14.3187L15.2198 17.5516C15.0768 17.593 14.9245 17.5933 14.7802 17.5516ZM23.8014 16.7562V21.6241C23.8014 22.0701 23.4431 22.4324 23.0013 22.4324C22.5594 22.4324 22.2011 22.0701 22.2011 21.6241V17.2181L23.8014 16.7562Z" fill="white"/>
</svg>
